<?xml version="1.0" encoding="UTF-8" standalone="no"?> <svg version="1.1" id="Ebene_1" x="0px" y="0px" viewBox="0 0 56.700002 48.200002" xml:space="preserve" sodipodi:docname="logo-drkserver.svg" inkscape:version="1.1.2 (b8e25be833, 2022-02-05)" width="56.700001" height="48.200001" xmlns:inkscape="http://www.inkscape.org/namespaces/inkscape" xmlns:sodipodi="http://sodipodi.sourceforge.net/DTD/sodipodi-0.dtd" xmlns="http://www.w3.org/2000/svg" xmlns:svg="http://www.w3.org/2000/svg"><defs id="defs145" /><sodipodi:namedview id="namedview143" pagecolor="#ffffff" bordercolor="#666666" borderopacity="1.0" inkscape:pageshadow="2" inkscape:pageopacity="0.0" inkscape:pagecheckerboard="0" showgrid="false" inkscape:zoom="3.1729155" inkscape:cx="132.52795" inkscape:cy="24.583069" inkscape:window-width="2560" inkscape:window-height="1377" inkscape:window-x="1912" inkscape:window-y="-8" inkscape:window-maximized="1" inkscape:current-layer="Ebene_1" /><path id="rect140" style="fill:#e60005" d="m 0,25.5 h 5.6999998 v 5.7 H 0 Z m 0,-17 h 5.6999998 v 5.7 H 0 Z M 0,17 h 5.6999998 v 5.7 H 0 Z m 0,17 h 5.6999998 v 5.7 H 0 Z m 0,8.5 h 5.6999998 v 5.7 H 0 Z M 8.5,17 h 5.7 v 5.7 H 8.5 Z m 0,25.5 h 5.7 v 5.7 H 8.5 Z m 0,-8.5 h 5.7 v 5.7 H 8.5 Z m 0,-8.5 h 5.7 v 5.7 H 8.5 Z M 17,17 h 5.7 v 5.7 H 17 Z m 0,25.5 h 5.7 v 5.7 H 17 Z M 17,34 h 5.7 v 5.7 H 17 Z m 0,-8.5 h 5.7 v 5.7 H 17 Z m 0,-17 h 5.7 v 5.7 H 17 Z m 8.5,8.5 h 5.7 v 5.7 h -5.7 z m 0,25.5 h 5.7 v 5.7 h -5.7 z m 0,-8.5 h 5.7 v 5.7 h -5.7 z m 0,-8.5 h 5.7 v 5.7 h -5.7 z m 0,-17 h 5.7 v 5.7 h -5.7 z m 0,-8.5 h 5.7 V 5.6999998 H 25.5 Z M 34,42.5 h 5.7 v 5.7 H 34 Z M 34,34 h 5.7 v 5.7 H 34 Z m 0,-8.5 h 5.7 v 5.7 H 34 Z M 42.5,17 h 5.7 v 5.7 h -5.7 z m 0,25.5 h 5.7 v 5.7 h -5.7 z m 0,-8.5 h 5.7 v 5.7 h -5.7 z m 0,-8.5 h 5.7 v 5.7 h -5.7 z m 0,-17 h 5.7 v 5.7 H 42.5 Z M 51,17 h 5.7 v 5.7 H 51 Z m 0,25.5 h 5.7 v 5.7 H 51 Z M 51,34 h 5.7 v 5.7 H 51 Z m 0,-8.5 h 5.7 v 5.7 H 51 Z" /></svg>